<svg xmlns="http://www.w3.org/2000/svg" width="760" height="300" role="img" aria-label="Variant comparison">
<rect width="100%" height="100%" fill="#10151c"/>
<text x="24" y="30" fill="#f4f7fb" font-family="sans-serif" font-size="18">Modeled variant diagnostics</text>
<text x="24" y="50" fill="#9aa7b4" font-family="sans-serif" font-size="11">Real daily bars; modeled option proxy, not realized performance</text>
<text x="24" y="104" fill="#f4f7fb" font-family="sans-serif" font-size="13">baseline</text>
<text x="182" y="102" text-anchor="end" fill="#9aa7b4" font-family="sans-serif" font-size="10">Win rate</text>
<rect x="190" y="90" width="500" height="18" fill="#202b36" rx="3"/>
<rect x="190" y="90" width="458.6" height="18" fill="#75d6a1" rx="3"/>
<text x="654.6" y="103" fill="#f4f7fb" font-family="sans-serif" font-size="10">91.7%</text>
<text x="182" y="138" text-anchor="end" fill="#9aa7b4" font-family="sans-serif" font-size="10">Return on capital</text>
<rect x="190" y="126" width="500" height="18" fill="#202b36" rx="3"/>
<rect x="190" y="126" width="318.9" height="18" fill="#75d6a1" rx="3"/>
<text x="514.9" y="139" fill="#f4f7fb" font-family="sans-serif" font-size="10">76.5%</text>
<text x="24" y="196" fill="#f4f7fb" font-family="sans-serif" font-size="13">improved</text>
<text x="182" y="194" text-anchor="end" fill="#9aa7b4" font-family="sans-serif" font-size="10">Win rate</text>
<rect x="190" y="182" width="500" height="18" fill="#202b36" rx="3"/>
<rect x="190" y="182" width="495.1" height="18" fill="#77b7ff" rx="3"/>
<text x="691.1" y="195" fill="#f4f7fb" font-family="sans-serif" font-size="10">99.0%</text>
<text x="182" y="230" text-anchor="end" fill="#9aa7b4" font-family="sans-serif" font-size="10">Return on capital</text>
<rect x="190" y="218" width="500" height="18" fill="#202b36" rx="3"/>
<rect x="190" y="218" width="302.7" height="18" fill="#77b7ff" rx="3"/>
<text x="498.7" y="231" fill="#f4f7fb" font-family="sans-serif" font-size="10">72.6%</text>
</svg>
